<svg version="1.0" xmlns="http://www.w3.org/2000/svg"
 width="250.000000pt" height="250.000000pt" viewBox="0 0 250.000000 250.000000"
 preserveAspectRatio="xMidYMid meet">

<g transform="translate(0.000000,250.000000) scale(0.100000,-0.100000)"
fill="#000000" stroke="none">
<path d="M228 2179 c-23 -12 -46 -35 -58 -59 -20 -38 -20 -57 -20 -870 0 -796
1 -832 19 -868 11 -22 35 -46 59 -60 l40 -22 590 0 591 0 -37 50 -37 50 -547
0 c-484 0 -548 2 -562 16 -14 14 -16 91 -16 700 l0 684 1000 0 1000 0 0 -352
0 -353 50 -16 50 -16 0 509 c0 490 -1 510 -20 548 -13 26 -34 47 -60 60 -39
20 -56 20 -1022 20 -959 -1 -984 -1 -1020 -21z m2006 -95 c12 -12 16 -36 16
-100 l0 -84 -1000 0 -1000 0 0 84 c0 64 4 88 16 100 14 14 117 16 984 16 867
0 970 -2 984 -16z"/>
<path d="M316 2034 c-31 -30 -9 -84 34 -84 24 0 50 26 50 50 0 24 -26 50 -50
50 -10 0 -26 -7 -34 -16z"/>
<path d="M466 2034 c-31 -30 -9 -84 34 -84 24 0 50 26 50 50 0 24 -26 50 -50
50 -10 0 -26 -7 -34 -16z"/>
<path d="M616 2034 c-31 -30 -9 -84 34 -84 24 0 50 26 50 50 0 24 -26 50 -50
50 -10 0 -26 -7 -34 -16z"/>
<path d="M1635 986 c-129 -41 -218 -146 -231 -274 -21 -196 97 -371 371 -552
44 -29 100 -69 124 -88 30 -24 47 -33 56 -26 8 5 76 52 152 104 155 106 293
236 336 316 63 119 72 255 23 351 -90 177 -318 236 -474 123 l-42 -30 -42 30
c-76 55 -186 74 -273 46z m206 -121 c22 -14 54 -46 71 -71 18 -24 35 -44 39
-44 3 0 18 18 32 39 83 125 237 147 343 49 117 -108 92 -288 -62 -442 -60 -60
-289 -226 -312 -226 -24 0 -254 165 -315 225 -152 152 -180 330 -68 439 51 49
101 67 174 62 41 -3 70 -12 98 -31z"/>
</g>
</svg>
