<svg width="125" height="125" viewBox="0 0 125 125" fill="none" xmlns="http://www.w3.org/2000/svg">
<g clip-path="url(#clip0_440_201)">
<path d="M35.2375 84.925C35.2375 84.925 49.5438 84.8813 61.9719 85.0563C74.4 85.2313 91.5313 85.8375 91.5313 85.8375C91.5313 85.8375 95.3969 78.9625 95.7 66.4375C96.0031 53.9125 91.1063 15.8406 65.625 12.9094C40.1438 9.97812 26.6125 59.6 28.125 68.0219C29.6375 76.4438 35.2375 84.925 35.2375 84.925Z" fill="#341919"/>
<path d="M113.75 125H11.25C11.25 125 10.9156 122.188 13.6094 117.5C16.3031 112.812 50.3312 103.438 52.0156 100.938C52.3437 100.453 52.5437 99.5 52.6406 98.2781C53.1094 93.2094 52.0344 83.5156 52.0344 83.5156H72.9281C72.9281 83.5156 72.2594 89.5531 72.2062 94.5906C72.175 97.4719 72.3469 100.028 72.9594 100.938C74.6437 103.438 108.672 112.812 111.366 117.5C114.059 122.188 113.75 125 113.75 125Z" fill="#FFD3D3"/>
<g style="mix-blend-mode:multiply" opacity="0.6">
<path d="M72.9468 83.5156C72.9468 83.5156 72.2781 89.5531 72.225 94.5906C67.725 96.7188 60.7187 99.0594 52.6593 98.2781C53.1281 93.2094 52.0531 83.5156 52.0531 83.5156H72.9468Z" fill="#D177B8"/>
</g>
<path d="M99.7313 54.0344C99.5813 54.7562 99.4188 55.4031 99.2344 55.9844V56.0125C97.9532 60.15 96.0032 61.125 95.2219 62.9906C94.5438 64.6031 91.8781 67.8437 89.2438 64.475C89.2438 64.475 90.4938 50.7719 91.5063 48.2812C91.5063 48.2812 92.9625 44.5312 95.5688 43.9781C98.9219 43.2406 101.041 47.6656 99.7313 54.0344Z" fill="#FFD3D3"/>
<g style="mix-blend-mode:multiply" opacity="0.6">
<path d="M90.1375 55.9656C90.1375 55.9656 95.4031 48.3188 97.9188 47.8188C100.434 47.3188 99.1688 53.8031 98.6719 55.9656C98.4122 57.1648 97.9862 58.3218 97.4063 59.4031C97.7762 57.8872 98.0301 56.3452 98.1656 54.7906C98.3438 51.8219 97.4031 49.2781 96.3438 49.5188C95.2844 49.7594 93.8656 53.4906 93.775 53.9156C93.6844 54.3406 94.475 55.0969 94.4281 57.4C94.3813 59.7031 93.2813 62.2063 92.6844 62.175C92.0875 62.1438 92.3438 60.2813 92.3438 58.1281C92.3438 55.975 90.6625 56.3938 89.9188 57.7906L90.1375 55.9656Z" fill="#D177B8"/>
</g>
<g style="mix-blend-mode:multiply" opacity="0.6">
<path d="M89.9188 57.7875C89.9188 57.7875 91.2719 55.7406 92.0844 56.6687C92.8969 57.5969 92.3125 60.1812 92.9344 60.4906C93.5563 60.8 94.3906 58.7125 94.2281 56.8062C94.0656 54.9 93.3094 53.1906 92.2344 53.5094L90.1375 55.9656L89.9188 57.7875Z" fill="#D177B8"/>
</g>
<path d="M99.225 56.0125C97.9438 60.15 95.9938 61.125 95.2125 62.9906C94.5344 64.6031 91.8688 67.8438 89.2344 64.475C89.3906 64.6031 90.9156 65.8406 92.4625 65.2813C94.0938 64.6844 94.6156 63.1594 95.3063 61.9813C95.9969 60.8031 97.7625 60 99.225 56.0125Z" fill="#FF8F8F"/>
<path d="M25.2687 54.0344C25.4187 54.7562 25.5812 55.4031 25.7656 55.9844V56.0125C27.0469 60.15 28.9969 61.125 29.7781 62.9906C30.4562 64.6031 33.1219 67.8437 35.7562 64.475C35.7562 64.475 34.5062 50.7719 33.4937 48.2812C33.4937 48.2812 32.0375 44.5312 29.4312 43.9781C26.0781 43.2406 23.9594 47.6656 25.2687 54.0344Z" fill="#FFD3D3"/>
<g style="mix-blend-mode:multiply" opacity="0.6">
<path d="M34.8625 55.9656C34.8625 55.9656 29.5969 48.3187 27.0812 47.8125C24.5656 47.3062 25.8312 53.7969 26.3281 55.9594C26.5829 57.1578 27.0036 58.3147 27.5781 59.3969C27.2082 57.8809 26.9543 56.3389 26.8187 54.7844C26.6406 51.8156 27.5812 49.2719 28.6406 49.5125C29.7 49.7531 31.1187 53.4844 31.2094 53.9094C31.3 54.3344 30.5094 55.0906 30.5562 57.3937C30.6031 59.6969 31.7031 62.2 32.3 62.1687C32.8969 62.1375 32.6406 60.275 32.6406 58.1219C32.6406 55.9687 34.3219 56.3875 35.0656 57.7844L34.8625 55.9656Z" fill="#D177B8"/>
</g>
<g style="mix-blend-mode:multiply" opacity="0.6">
<path d="M35.0812 57.7875C35.0812 57.7875 33.7281 55.7406 32.9156 56.6687C32.1031 57.5969 32.6875 60.1812 32.0656 60.4906C31.4437 60.8 30.6094 58.7125 30.7719 56.8062C30.9344 54.9 31.6906 53.1906 32.7656 53.5094L34.8625 55.9656L35.0812 57.7875Z" fill="#D177B8"/>
</g>
<path d="M25.775 56.0125C27.0563 60.15 29.0063 61.125 29.7875 62.9906C30.4656 64.6031 33.1313 67.8438 35.7656 64.475C35.6094 64.6031 34.0844 65.8406 32.5375 65.2813C30.9063 64.6844 30.3844 63.1594 29.6938 61.9813C29.0031 60.8031 27.2375 60 25.775 56.0125Z" fill="#FF8F8F"/>
<path d="M89.9562 61.5344C87.3 70.5969 82.3656 78.5375 75.1406 85.4156C70.9187 89.4344 66.2125 92.8938 62.5 93.4375H62.4C58.65 92.8875 53.9094 89.375 49.6594 85.3125C44.7844 80.65 40.6281 75.2531 37.6781 69.225C34.4281 62.5844 33.4594 55.8281 32.7375 48.5687C31.9344 40.4094 31.775 32.4563 33.1812 28.6531C34.1687 25.9844 36.6187 22.8844 40.2219 20.1312C45.5344 16.0469 53.3469 12.7344 62.4875 12.7344C77.8187 12.7344 89.3406 22.0344 91.7937 28.6531C94.4187 35.7344 92.6969 45.1063 91.8219 52.3531C91.4527 55.4595 90.8287 58.5303 89.9562 61.5344Z" fill="#FFD3D3"/>
<path d="M80.6906 79.0344C78.9869 81.2255 77.1324 83.2951 75.1406 85.2281C70.9187 89.3406 66.2125 92.8813 62.5 93.4375H62.4C58.65 92.875 53.9094 89.2844 49.6594 85.1313C44.7812 80.3594 40.6281 74.8375 37.6781 68.6688C36.8704 66.9729 36.1761 65.2253 35.6 63.4375H35.8469C36.3776 65.0096 37.0038 66.5479 37.7219 68.0438C40.7 74.2125 44.9094 79.7344 49.825 84.5063C54.1187 88.6594 58.9156 92.25 62.6937 92.8125H62.8125C66.5625 92.2563 71.3156 88.7156 75.5812 84.6031C77.399 82.8554 79.1055 80.9955 80.6906 79.0344Z" fill="#F39CCE"/>
<path d="M89.4844 63.4375C87.4582 69.071 84.5004 74.3242 80.7344 78.9781C84.3748 74.3003 87.2095 69.048 89.1219 63.4375H89.4844Z" fill="#F39CCE"/>
<g style="mix-blend-mode:multiply" opacity="0.44">
<path d="M67.2344 39.6C67.2344 39.6 66.8407 54.3219 69.2875 56.6625C71.7344 59.0031 79.1 58.625 83.8813 55.8188C88.6625 53.0125 88.1875 42.6469 88.1875 42.6469C88.1875 42.6469 83.9 38.2219 76.5313 38.8219C69.1625 39.4219 67.2344 39.6 67.2344 39.6Z" fill="#D177B8"/>
</g>
<g style="mix-blend-mode:multiply" opacity="0.44">
<path d="M57.7656 39.6C57.7656 39.6 58.1594 54.3219 55.7125 56.6625C53.2656 59.0031 45.9 58.625 41.1187 55.8188C36.3375 53.0125 36.8125 42.6469 36.8125 42.6469C36.8125 42.6469 41.1 38.2219 48.4687 38.8219C55.8375 39.4219 57.7656 39.6 57.7656 39.6Z" fill="#D177B8"/>
</g>
<path d="M102.356 55.5281C102.35 55.5098 102.345 55.491 102.341 55.4719C101.787 53.675 101.219 51.8938 100.719 50.1188C100.173 48.2379 99.7451 46.3248 99.4375 44.3906C99.1656 42.5719 98.9437 40.9938 98.75 39.5875C98.0125 34.1969 97.6844 31.2719 96.4062 26.6281C94.7875 20.7719 82.0781 16.9812 79.8063 15.5187C73.9031 11.7187 70.7437 4.50625 61.5094 3.7C52.275 2.89375 47.4469 10.1594 37.7938 17.8375L36.25 19.0625C27.8844 25.6875 25.8719 27.3469 23.6812 32.6813C21.3562 38.3312 23.6812 46.4125 21.8594 54.8469C21.0745 58.3946 20.5688 61.9983 20.3469 65.625C20.2088 67.8474 20.2779 70.0779 20.5531 72.2875C20.9375 75.1 21.7531 77.5687 23.175 79.3906C24.6355 81.2242 26.4783 82.7172 28.575 83.7656C29.0227 84.4255 29.5278 85.0446 30.0844 85.6156C30.7649 85.9678 31.465 86.2808 32.1813 86.5531L32.2281 86.575H32.2594C32.7688 86.7688 33.3625 86.9813 34.0281 87.2C35.823 87.7668 37.6615 88.1849 39.525 88.45C39.5331 88.4526 39.5419 88.4526 39.55 88.45H39.6094C40.375 88.5625 41.1719 88.65 42.0063 88.7062C42.0166 88.7078 42.0271 88.7078 42.0375 88.7062C43.2856 88.794 44.5378 88.8075 45.7875 88.7469C45.7875 88.7469 36.1281 77.3344 35.0375 60.5406C35.1531 61.3156 37.0375 73.7875 40.0375 78.2688C39.1724 74.0575 38.5464 69.8007 38.1625 65.5188C38.1625 65.5188 38.1625 65.4906 38.1625 65.4781C37.7178 60.8976 37.5904 56.2918 37.7812 51.6937C38.4062 38.1625 45.4719 22.9062 50.8094 19.0437C56.1469 15.1812 69.7875 14.7594 74.3312 18.0875L74.0719 16.65L75.4531 17.8125L75.6031 17.9406L76 17.5375L77.5625 18.3969L76.875 19.0625C78.0181 20.153 79.0989 21.3069 80.1125 22.5187H80.1281C82.8531 25.7531 86.5625 30.9187 88.125 36.6687C90.7094 46.2875 87.8344 75.5531 85.1844 84.8969C85.1844 84.8969 88.9938 79.9594 90.6781 74.7687C89.8063 78.0531 88.0437 83.2063 84.8 87.5813C84.8 87.5813 88.475 88.5531 92.7156 86.1406C95.8656 84.35 99.4094 79.9094 101.609 76.0062C101.416 76.4219 98.9219 81.775 95.4656 84.8875L95.4469 84.9031C94.9997 85.3104 94.52 85.6804 94.0125 86.0094C94.325 85.8719 104.012 81.2531 104.912 71.6344C105.412 65.9781 103.944 60.6875 102.356 55.5281ZM24.6875 73.8812C24.0625 70.3688 24.2312 65.8594 25.8469 60.0781C25.7437 60.575 23.8 70.3906 26.1906 78.5531C25.4676 77.0762 24.9613 75.5027 24.6875 73.8812Z" fill="#341919"/>
<g style="mix-blend-mode:multiply" opacity="0.44">
<path d="M75.4531 17.8125L74.0812 16.6781L74.3406 18.1156C69.7969 14.7875 56.1531 15.2094 50.8187 19.0719C45.4844 22.9344 38.4375 38.1781 37.7906 51.7094C37.5998 56.3075 37.7272 60.9132 38.1719 65.4938C35.8812 49.0781 39.0719 35.9844 39.0719 35.9844C36.3544 45.2202 34.665 54.7278 34.0344 64.3344C33.0406 79.8906 41.7875 88.4688 42.0469 88.7094H42.0125L39.6156 88.4531H39.5562H39.5375C39.3594 88.3281 33.6531 84.0438 33.1312 71.6344C32.6187 59.3688 36.7844 43.125 37.0094 42.2594C34.168 50.707 32.1247 59.4023 30.9062 68.2313C29.6875 77.2156 31.25 82.3969 32.5594 85C32.6156 85.1094 32.6719 85.2188 32.7312 85.3125C33.0722 85.9903 33.509 86.6155 34.0281 87.1688L32.2594 86.5438H32.2281L32.1812 86.5219C31.9844 86.4313 31.2438 86.0188 30.5969 84.6469C30.408 84.2564 30.2492 83.8521 30.1219 83.4375C29.3812 81.0781 28.9719 76.9719 30.0844 69.8781C32.4437 54.775 38.2344 34.1813 38.2344 34.1813C38.2344 34.1813 29.3125 46.3344 25.85 60.0563C25.85 60.0563 25.85 60.0563 25.85 60.0781C24.2875 66.2406 24.2625 70.7688 24.6906 73.8813C25.2031 77.5406 26.3562 79.2531 26.45 79.3844C26.2906 79.3031 22.075 77.0813 20.5562 72.2844C19.9219 70.2273 19.8272 68.0417 20.2812 65.9375C20.3 65.8344 20.325 65.7313 20.3469 65.625C22.3812 56.2188 33.2469 39.9375 39.5375 29.8469C45.7875 19.8063 50.6469 12.2125 50.7875 11.975C44.9781 15.4563 36.5062 18.9469 36.25 19.0625L37.7938 17.8344C37.9188 17.7844 39.9594 16.9656 45.2219 14.25C50.6469 11.4375 60.8 3.29375 66.5094 5.86875C72.2188 8.44375 76 17.525 76 17.525L75.4531 17.8125Z" fill="#D177B8"/>
</g>
<g style="mix-blend-mode:multiply" opacity="0.44">
<path d="M104.891 71.6313C103.994 81.2469 94.2938 85.8656 93.9907 86.0063C94.4982 85.6773 94.9779 85.3073 95.425 84.9L95.4438 84.8844C98.9 81.7594 101.381 76.4188 101.588 76.0031C99.4 79.9063 95.8438 84.3469 92.6938 86.1375C88.4532 88.55 84.7782 87.5781 84.7782 87.5781C88.0219 83.2031 89.7782 78.0594 90.6563 74.7656C88.9719 79.9563 85.1625 84.8938 85.1625 84.8938C87.8125 75.55 90.6875 46.2844 88.1032 36.6656C86.5625 30.9156 82.8438 25.75 80.1031 22.5219C80.5469 22.8938 87.6375 29.0281 90.5344 42.4688C93.4813 56.1313 89.7688 75.3656 89.6532 75.9594C89.8125 75.425 95.8813 55.1156 93.5344 41.875C93.6844 42.5656 96.775 57.1656 94.7844 68.6688C92.7813 80.2656 90.6688 83.9813 90.6063 84.0813C90.7782 84.0031 102.725 83.1438 102.572 67.7219C102.456 55.9563 99.1625 47.4844 98.7313 39.5969C98.7313 39.5969 99.6063 44.1344 100.7 50.1406C101.638 55.1781 102.7 61.2469 103.556 66.525C105.213 76.775 97.5438 83.2969 95.7688 84.65C97.5438 83.3281 105.275 77.0813 104.544 69.2156C103.769 60.9 102.494 56.1094 102.338 55.5438C103.944 60.6875 105.413 65.9781 104.891 71.6313Z" fill="#D177B8"/>
</g>
<g style="mix-blend-mode:multiply" opacity="0.44">
<path d="M26.4469 79.375C26.4469 79.375 20.4344 74.2344 21.3812 65.1625C22.3281 56.0906 30.4437 44.9469 30.4437 44.9469C30.4437 44.9469 28.4125 51.2375 25.8687 59.0094C23.325 66.7812 23.3281 72.4812 26.4469 79.375Z" fill="#D177B8"/>
</g>
<g style="mix-blend-mode:multiply" opacity="0.44">
<path d="M39.6156 88.4625C39.6156 88.4625 28.9906 78.2156 34.4719 54.525C34.4719 54.525 29.6781 74.2344 42.0125 88.7187L39.6156 88.4625Z" fill="#1C0415"/>
</g>
<g style="mix-blend-mode:multiply" opacity="0.44">
<path d="M76.875 19.0625C81.1603 21.6432 85.0859 24.7786 88.55 28.3875C94.0312 34.1906 98.75 39.1406 98.75 39.1406L98.5938 38.4313C95.7615 34.6484 92.6262 31.1023 89.2188 27.8281C85.8526 24.5654 82.096 21.7314 78.0344 19.3906C78.0344 19.3906 84.9281 21.4938 90.6844 26.1531C96.4406 30.8125 97.8719 33.5625 97.8719 33.5625L97.5 31.1875C97.5 31.1875 93.2563 25.9094 87.8125 23.1437C84.3694 21.4159 80.7908 19.9726 77.1125 18.8281L76.875 19.0625Z" fill="#D177B8"/>
</g>
<g style="mix-blend-mode:soft-light">
<path d="M31.9156 22.525C31.9156 22.525 31.1562 24.1281 32.2531 25.3125C33.35 26.4969 38.1906 24.9344 39.5344 24.8969C40.8781 24.8594 43.2406 23.9375 43.2406 23.9375L38.2625 31.875C38.2625 31.875 38.6937 30.8656 37.6687 29.7656C36.6437 28.6656 31.9875 30.4094 29.6406 29.3875C27.2937 28.3656 28.6031 25.4063 28.6031 25.4063L31.9156 22.525Z" fill="#FFFBEB"/>
</g>
<g style="mix-blend-mode:soft-light">
<path d="M85.2938 28.9844C85.2938 28.9844 88.35 34.7156 89.8781 39.7563C90.1075 38.4479 90.6488 37.2141 91.4563 36.1594C92.8188 34.3437 93.6281 34.3688 93.6281 34.3688L89.2313 29.1188L85.2938 28.9844Z" fill="#FFFBEB"/>
</g>
<g style="mix-blend-mode:soft-light">
<path d="M89.8906 28.4719L91.9813 27.2031C93.1253 28.1575 94.2146 29.1758 95.2438 30.2531L93.8906 32.6813C93.8906 32.6813 90.55 29.1156 89.8906 28.4719Z" fill="#FFFBEB"/>
</g>
<path d="M68.0906 39.225C68.0906 39.225 67.3531 42.0375 67.9406 42.9969C68.5281 43.9563 82.9406 39.225 85.075 39.9531C87.2094 40.6813 88.225 41.4813 88.225 41.4813C88.225 41.4813 87.8844 37.0438 84.9562 36.7938C82.0281 36.5438 68.0906 39.225 68.0906 39.225Z" fill="black"/>
<path d="M56.9094 39.225C56.9094 39.225 57.6469 42.0375 57.0594 42.9969C56.4719 43.9563 42.0594 39.225 39.925 39.9531C37.7907 40.6813 36.775 41.4813 36.775 41.4813C36.775 41.4813 37.1156 37.0438 40.0438 36.7938C42.9719 36.5438 56.9094 39.225 56.9094 39.225Z" fill="black"/>
<path d="M69.4625 56.0781C69.5531 57.3437 77.2469 59.4437 80.9438 57.4562C84.8875 55.3344 86.4281 48.3937 82.0125 46.4156C77.5969 44.4375 68.8156 46.8312 69.4625 56.0781Z" fill="#E4E5F9"/>
<path d="M76.4875 56.5031C79.1989 56.5031 81.3969 54.3051 81.3969 51.5938C81.3969 48.8824 79.1989 46.6844 76.4875 46.6844C73.7761 46.6844 71.5781 48.8824 71.5781 51.5938C71.5781 54.3051 73.7761 56.5031 76.4875 56.5031Z" fill="#88B7C6"/>
<path d="M76.4875 56.5031C79.1989 56.5031 81.3969 54.3051 81.3969 51.5938C81.3969 48.8824 79.1989 46.6844 76.4875 46.6844C73.7761 46.6844 71.5781 48.8824 71.5781 51.5938C71.5781 54.3051 73.7761 56.5031 76.4875 56.5031Z" fill="black" fill-opacity="0.3"/>
<path d="M77.1515 56.1657C79.6776 55.799 81.4281 53.4539 81.0614 50.9278C80.6947 48.4017 78.3496 46.6512 75.8235 47.0179C73.2974 47.3846 71.5469 49.7297 71.9136 52.2558C72.2803 54.7819 74.6254 56.5325 77.1515 56.1657Z" fill="#77ADBE"/>
<g style="mix-blend-mode:multiply">
<path d="M76.4875 54.5937C78.1443 54.5937 79.4875 53.2506 79.4875 51.5938C79.4875 49.9369 78.1443 48.5938 76.4875 48.5938C74.8306 48.5938 73.4875 49.9369 73.4875 51.5938C73.4875 53.2506 74.8306 54.5937 76.4875 54.5937Z" fill="black"/>
</g>
<path d="M69.375 54.8438C69.7474 55.6167 70.1811 56.3587 70.6719 57.0625C70.6719 57.0625 69.225 56.675 69.125 56.2219C69.025 55.7688 69.375 54.8438 69.375 54.8438Z" fill="#DDA6AE"/>
<path d="M69.6188 53.0281C69.6188 53.0281 70.8344 46.9469 77.3938 46.3156C83.9532 45.6844 84.6875 50.5531 84.6875 50.5531C84.6875 50.5531 85.8813 46.4719 80.9813 45.3062C74.9313 43.8656 70.2656 48.9375 69.6188 53.0281Z" fill="#1C0A16"/>
<path d="M80.0156 50.8656C79.6875 51.0625 80.9812 51.3594 82.0219 51.15C82.9594 50.9656 83.475 50.4813 83.4094 50.3688C83.3437 50.2563 81.3 50.0813 80.0156 50.8656Z" fill="white"/>
<path d="M79.2281 50.9813C78.8812 50.7875 78.4156 50.9 78.3656 51.0938C78.3156 51.2875 78.7281 51.6156 78.9531 51.5719C79.1781 51.5281 79.4219 51.0875 79.2281 50.9813Z" fill="white"/>
<g style="mix-blend-mode:multiply" opacity="0.6">
<path d="M69.4813 54C69.4813 54 71.8594 47.9375 77.875 47.75C83.8906 47.5625 84.6875 50.8438 84.6875 50.8438V50.5531C84.6875 50.5531 84.8031 46.3625 78.05 45.7906C71.2969 45.2188 69.5281 52.4688 69.4813 54Z" fill="#D177B8"/>
</g>
<path d="M55.5375 56.0781C55.4469 57.3437 47.7531 59.4437 44.0563 57.4562C40.1125 55.3344 38.5719 48.3937 42.9875 46.4156C47.4031 44.4375 56.1844 46.8312 55.5375 56.0781Z" fill="#E4E5F9"/>
<path d="M48.5125 56.5031C51.2239 56.5031 53.4219 54.3051 53.4219 51.5938C53.4219 48.8824 51.2239 46.6844 48.5125 46.6844C45.8012 46.6844 43.6031 48.8824 43.6031 51.5938C43.6031 54.3051 45.8012 56.5031 48.5125 56.5031Z" fill="#88B7C6"/>
<path d="M48.5125 56.5031C51.2239 56.5031 53.4219 54.3051 53.4219 51.5938C53.4219 48.8824 51.2239 46.6844 48.5125 46.6844C45.8012 46.6844 43.6031 48.8824 43.6031 51.5938C43.6031 54.3051 45.8012 56.5031 48.5125 56.5031Z" fill="black" fill-opacity="0.3"/>
<path d="M52.9296 52.0366C53.287 49.5095 51.5281 47.1712 49.001 46.8138C46.4739 46.4565 44.1357 48.2154 43.7783 50.7424C43.4209 53.2695 45.1798 55.6078 47.7069 55.9651C50.2339 56.3225 52.5722 54.5636 52.9296 52.0366Z" fill="#77ADBE"/>
<g style="mix-blend-mode:multiply">
<path d="M48.5125 54.5937C50.1694 54.5937 51.5125 53.2506 51.5125 51.5938C51.5125 49.9369 50.1694 48.5938 48.5125 48.5938C46.8557 48.5938 45.5125 49.9369 45.5125 51.5938C45.5125 53.2506 46.8557 54.5937 48.5125 54.5937Z" fill="black"/>
</g>
<path d="M55.625 54.8438C55.2526 55.6167 54.8189 56.3587 54.3281 57.0625C54.3281 57.0625 55.775 56.675 55.875 56.2219C55.975 55.7688 55.625 54.8438 55.625 54.8438Z" fill="#DDA6AE"/>
<path d="M55.3813 53.0281C55.3813 53.0281 54.1656 46.9469 47.6063 46.3156C41.0469 45.6844 40.3125 50.5531 40.3125 50.5531C40.3125 50.5531 39.1188 46.4719 44.0188 45.3062C50.0688 43.8656 54.7344 48.9375 55.3813 53.0281Z" fill="#1C0A16"/>
<path d="M45 50.8656C45.3281 51.0625 44.0344 51.3594 42.9937 51.15C42.0562 50.9656 41.5406 50.4813 41.6062 50.3688C41.6719 50.2563 43.7 50.0813 45 50.8656Z" fill="white"/>
<path d="M45.7719 50.9813C46.1187 50.7875 46.5844 50.9 46.6344 51.0938C46.6844 51.2875 46.2719 51.6156 46.0469 51.5719C45.8219 51.5281 45.5781 51.0875 45.7719 50.9813Z" fill="white"/>
<g style="mix-blend-mode:multiply" opacity="0.6">
<path d="M55.5188 54C55.5188 54 53.1406 47.9375 47.125 47.75C41.1094 47.5625 40.3125 50.8438 40.3125 50.8438V50.5531C40.3125 50.5531 40.1969 46.3625 46.95 45.7906C53.7031 45.2188 55.4719 52.4688 55.5188 54Z" fill="#D177B8"/>
</g>
<g style="mix-blend-mode:multiply" opacity="0.6">
<path d="M55.3125 76.2938C55.3125 76.2938 57.9562 79.475 62.0781 79.475C66.2 79.475 69.6875 76.3125 69.6875 76.3125L55.3125 76.2938Z" fill="#D177B8"/>
</g>
<path d="M50.8469 72.6719C50.8469 72.6719 55.3281 78.2562 62.5156 78.2562C69.7031 78.2562 74.1844 72.6719 74.1844 72.6719C74.1844 72.6719 70.3125 73.0687 66.875 73.5906C63.687 74.1269 60.4318 74.1269 57.2437 73.5906C54.1219 73.0344 51.25 72.8156 50.8469 72.6719Z" fill="#C66767"/>
<path d="M51.0312 72.875L62.5 75.0938L73.6562 72.875L65.3125 73.5938L62.1875 74.1875L56.1875 73.4687" fill="black"/>
<path d="M69.7844 73.0219C64 72 62.5063 73.0219 62.5063 73.0219C62.5063 73.0219 61 72.2563 55.2469 73.0219C53.4398 73.2201 51.612 72.9567 49.9344 72.2563C49.9344 72.2563 50.5875 72.9406 54.5938 73.325C57.2737 73.6194 59.9219 74.1538 62.5063 74.9219C65.0908 74.1542 67.7388 73.6198 70.4188 73.325C74.425 72.9406 75.0813 72.2563 75.0813 72.2563C73.4099 72.9593 71.5864 73.2228 69.7844 73.0219Z" fill="#C66767"/>
<g style="mix-blend-mode:multiply" opacity="0.6">
<path d="M73.6531 71.8469C73.6531 71.8469 75.3875 72.1344 76.4656 73.0719C76.4656 73.0719 75.9094 71.5656 74.9031 71.4219C73.8969 71.2781 73.6531 71.8469 73.6531 71.8469Z" fill="#D177B8"/>
</g>
<g style="mix-blend-mode:multiply" opacity="0.6">
<path d="M51.3469 71.8469C51.3469 71.8469 49.6125 72.1344 48.5344 73.0719C48.5344 73.0719 49.0906 71.5656 50.0969 71.4219C51.1031 71.2781 51.3469 71.8469 51.3469 71.8469Z" fill="#D177B8"/>
</g>
<g style="mix-blend-mode:soft-light">
<path d="M65.9188 75.925L67.0469 76.975C67.0469 76.975 69.8875 75.9094 70.6906 74.9219L65.9188 75.925Z" fill="#FFCCB8"/>
</g>
<path d="M103.75 112.887C103.75 112.887 98.0656 116.853 97.9875 125H27.1C27.0219 116.853 21.3375 112.887 21.3375 112.887C21.4102 112.856 21.4855 112.831 21.5625 112.812C21.6313 112.787 21.6781 112.756 21.6375 112.716C21.5566 112.64 21.4954 112.545 21.4594 112.441C21.3531 111.984 22.675 112.103 23.05 111.891C23.575 111.578 24.0563 111.328 24.5032 111.094C27.8938 109.325 29.5344 109.153 34.725 107.447C35.7875 107.097 37.6469 106.534 38.7875 106.197L38.9719 106.141C39.1594 106.084 39.2219 106.016 39.2438 105.947C39.2875 105.819 39.2031 105.684 39.5563 105.578C40.0813 105.416 40.7469 105.578 41.2688 105.422C42.8472 104.921 44.3965 104.333 45.9094 103.659C46.8469 103.234 48.4938 102.822 49.2031 102.159C49.3176 102.05 49.4221 101.931 49.5156 101.803C49.9031 101.3 50.1406 100.675 49.7844 100.347L49.7281 100.3C49.1469 99.8625 49.2531 99.2125 49.5188 98.5594C50.0781 97.2031 51.7063 95.5344 51.775 94.0437C51.775 94.3812 52.3094 94.8062 52.5188 95.0094C53.1013 95.5679 53.7462 96.0576 54.4406 96.4687C55.7854 97.2185 57.2515 97.7262 58.7719 97.9687C60.0116 98.1849 61.2644 98.3175 62.5219 98.3656C65.1469 98.25 68.1938 97.8656 70.5156 96.5281L70.6188 96.4687C71.3213 96.056 71.9736 95.5631 72.5625 95C72.7719 94.7969 73.3063 94.375 73.3063 94.0344C73.3656 95.525 75.0031 97.1937 75.5625 98.55C75.8281 99.2031 75.9344 99.8531 75.3531 100.291L75.2969 100.337C74.9531 100.666 75.1781 101.291 75.5656 101.794C75.6591 101.921 75.7637 102.041 75.8781 102.15C76.5875 102.812 78.2344 103.225 79.1719 103.65C80.6848 104.323 82.2341 104.912 83.8125 105.412C84.3344 105.584 85 105.412 85.525 105.569C85.8688 105.675 85.7844 105.809 85.8375 105.937C85.8594 106.006 85.9219 106.075 86.1094 106.131L86.2938 106.187C87.4438 106.534 89.3031 107.097 90.3563 107.437C95.5469 109.144 97.1875 109.312 100.578 111.084C101.025 111.319 101.516 111.581 102.031 111.881C102.406 112.094 103.728 111.975 103.622 112.431C103.586 112.536 103.525 112.631 103.444 112.706C103.403 112.747 103.444 112.778 103.519 112.803C103.598 112.824 103.676 112.853 103.75 112.887Z" fill="black"/>
<path d="M72.2344 94.0219V95.5719L73.3156 94.2781L72.2344 94.0219Z" fill="#183160"/>
<g style="mix-blend-mode:multiply" opacity="0.6">
<path d="M75.5656 101.875C73.4906 103.503 66.5844 103.775 66.5844 103.775C71.8437 102.95 74.8562 100.756 75.2968 100.419C74.9531 100.737 75.1781 101.362 75.5656 101.875Z" fill="#183160"/>
</g>
<g style="mix-blend-mode:multiply" opacity="0.6">
<path d="M86.2937 106.25C85.2469 107.312 83.05 107.603 83.05 107.603C84.0578 107.219 84.9986 106.678 85.8375 106C85.8594 106.069 85.9219 106.137 86.1094 106.194L86.2937 106.25Z" fill="#183160"/>
</g>
<g style="mix-blend-mode:multiply" opacity="0.6">
<path d="M103.528 112.884C98.9282 116.066 97.8125 123.291 97.7594 123.75C97.7594 123.438 97.9719 119.834 98.9375 117.834C100.078 115.463 103 113.016 103.625 112.522C103.589 112.627 103.528 112.721 103.447 112.797C103.413 112.828 103.459 112.859 103.528 112.884Z" fill="#183160"/>
</g>
<g style="mix-blend-mode:multiply" opacity="0.6">
<path d="M83.9563 105.744C83.9563 105.744 74.5813 110.544 74.0625 113.375C74.0625 113.375 75.4188 107.034 83.9563 105.744Z" fill="#183160"/>
</g>
<path d="M52.8531 94.0656V95.6156L51.7719 94.3188L52.8531 94.0656Z" fill="#183160"/>
<path d="M49.5219 101.906C51.5969 103.534 58.5031 103.806 58.5031 103.806C53.2437 102.981 50.2312 100.787 49.7906 100.45C50.1344 100.778 49.9094 101.403 49.5219 101.906Z" fill="#183160"/>
<g style="mix-blend-mode:multiply" opacity="0.6">
<path d="M38.7938 106.3C39.8406 107.362 42.0375 107.653 42.0375 107.653C41.0297 107.269 40.0889 106.728 39.25 106.05C39.2281 106.119 39.1656 106.187 38.9781 106.244L38.7938 106.3Z" fill="#183160"/>
</g>
<g style="mix-blend-mode:multiply" opacity="0.6">
<path d="M21.5625 112.925C26.1625 116.106 27.2656 123.331 27.3313 123.788C27.3313 123.475 27.1188 119.872 26.1531 117.872C25.0125 115.5 22.0906 113.053 21.4656 112.559C21.5016 112.664 21.5628 112.759 21.6438 112.834C21.675 112.869 21.6281 112.9 21.5625 112.925Z" fill="#183160"/>
</g>
<g style="mix-blend-mode:multiply" opacity="0.6">
<path d="M41.1281 105.784C41.1281 105.784 57.8687 113.578 58.7969 118.172C58.7969 118.172 56.3719 107.881 41.1281 105.784Z" fill="#183160"/>
</g>
<path opacity="0.32" d="M39.9563 125H27.1C27.0219 116.853 21.3375 112.888 21.3375 112.888C21.4102 112.856 21.4855 112.831 21.5625 112.813C21.6313 112.788 21.6781 112.756 21.6375 112.716C21.5566 112.64 21.4954 112.545 21.4594 112.441C21.3531 111.984 22.675 112.103 23.05 111.891C23.575 111.578 24.0563 111.328 24.5032 111.094C27.8938 109.325 29.5344 109.153 34.725 107.447C35.7875 107.097 37.6469 106.534 38.7875 106.197L38.9719 106.141C39.1594 106.084 39.2219 106.016 39.2438 105.947C39.2875 105.819 39.2031 105.684 39.5563 105.578C40.0813 105.416 40.7469 105.578 41.2688 105.422C42.8472 104.921 44.3965 104.333 45.9094 103.659C46.8469 103.234 48.4938 102.822 49.2031 102.159C49.3176 102.05 49.4221 101.931 49.5156 101.803C49.9031 101.3 50.1406 100.675 49.7844 100.347L49.7282 100.3C49.1469 99.8625 49.2532 99.2125 49.5188 98.5594C50.0782 97.2031 51.7063 95.5344 51.775 94.0438C51.775 94.3813 52.3094 94.8063 52.5188 95.0094C53.1013 95.5679 53.7462 96.0576 54.4407 96.4688C55.7854 97.2185 57.2515 97.7262 58.7719 97.9688L58.9781 98.3063C58.9781 98.3063 47.35 99.7656 59.6407 104.153C59.6407 104.153 35.0906 110.203 35.075 118.191C35.075 121.628 37.3594 123.728 39.9563 125Z" fill="#D077B7"/>
<path opacity="0.32" d="M103.75 112.887C103.75 112.887 98.0656 116.853 97.9875 125H87.6594C88.7942 123.448 89.8266 121.824 90.75 120.137C94.5187 113.375 71.7687 102.781 71.7687 102.781C76.6312 100.403 72.3187 97.5094 70.5375 96.5094L70.6406 96.45C71.3346 96.0417 71.9794 95.5552 72.5625 95C72.7718 94.7969 73.3062 94.375 73.3062 94.0344C73.3656 95.525 75.0031 97.1937 75.5625 98.55C75.8281 99.2031 75.9344 99.8531 75.3531 100.291L75.2968 100.337C74.9531 100.666 75.1781 101.291 75.5656 101.794C75.6591 101.921 75.7637 102.041 75.8781 102.15C76.5875 102.812 78.2344 103.225 79.1719 103.65C80.6847 104.323 82.234 104.912 83.8125 105.412C84.3344 105.584 85 105.412 85.525 105.569C85.8687 105.675 85.7843 105.809 85.8375 105.937C85.8593 106.006 85.9218 106.075 86.1093 106.131L86.2937 106.187C87.4437 106.534 89.3031 107.097 90.3562 107.437C95.5469 109.144 97.1875 109.312 100.578 111.084C101.025 111.319 101.516 111.581 102.031 111.881C102.406 112.094 103.728 111.975 103.622 112.431C103.586 112.536 103.525 112.631 103.444 112.706C103.403 112.747 103.444 112.778 103.519 112.803C103.598 112.824 103.676 112.853 103.75 112.887Z" fill="#D077B7"/>
<path d="M65.2031 65.3125C65.2031 65.3125 66.0531 63.7344 67.1063 64.4125L65.2031 65.3125Z" fill="#4A162D"/>
<path d="M58.0156 64.4281C58.0156 64.4281 59.0906 63.7344 60.1625 65.5844L58.0156 64.4281Z" fill="#4A162D"/>
<g style="mix-blend-mode:multiply" opacity="0.6">
<path d="M67.7125 63.8281C67.7125 63.8281 67.6157 64.4531 66.5094 64.5406C65.4032 64.6281 64.375 66.7281 62.5 66.7281C60.625 66.7281 59.6875 64.6406 58.5813 64.5406C57.475 64.4406 57.2875 63.8281 57.2875 63.8281C57.1486 62.3695 57.1979 60.8991 57.4344 59.4531C57.3963 60.1336 57.5722 60.809 57.9375 61.3844C58.4188 62.0344 60.7938 65.15 62.5 65.15C64.2063 65.15 66.5157 62.025 66.8438 61.0563C67.1208 60.1096 67.2803 59.1325 67.3188 58.1469C67.7514 60.0076 67.8843 61.9255 67.7125 63.8281Z" fill="#D177B8"/>
</g>
<g style="mix-blend-mode:multiply" opacity="0.41">
<path d="M67.0062 56.9094C66.7707 58.7395 66.6538 60.5829 66.6562 62.4281C66.6562 62.4281 66.2594 59.9812 66.7062 55.9469C66.7875 56.1812 66.8937 56.5062 67.0187 56.9031L67.0062 56.9094Z" fill="#D177B8"/>
</g>
<g style="mix-blend-mode:multiply" opacity="0.41">
<path d="M58.3813 62.7188C58.3803 60.7738 58.2509 58.831 57.9938 56.9031C58.1094 56.5 58.2156 56.175 58.3063 55.9438C58.8 60.1531 58.3813 62.7188 58.3813 62.7188Z" fill="#D177B8"/>
</g>
<g style="mix-blend-mode:multiply" opacity="0.6">
<path d="M57.9375 61.3719C57.9375 61.3719 57.3437 63.5094 57.2875 63.8281C57.2312 64.1469 59.7125 69.2063 62.5 69.2063C65.2875 69.2063 67.6594 64.4437 67.7125 63.8281C67.7656 63.2125 66.8437 61.0437 66.8437 61.0437C66.8437 61.0437 64.7437 65.1375 62.5 65.1375C60.425 65.1375 57.9375 61.3719 57.9375 61.3719Z" fill="#D177B8"/>
</g>
</g>
<defs>
<clipPath id="clip0_440_201">
<rect width="125" height="125" fill="white"/>
</clipPath>
</defs>
</svg>
