<svg width="24" height="24" viewBox="0 0 24 24" fill="none" xmlns="http://www.w3.org/2000/svg">
<path d="M12.0022 1.5C6.20376 1.5 1.5022 6.20156 1.5022 12C1.5022 16.2984 4.0897 19.9922 7.78813 21.6188C7.76001 20.8875 7.78345 20.0062 7.97095 19.2094C8.17251 18.3562 9.32095 13.4859 9.32095 13.4859C9.32095 13.4859 8.98345 12.8156 8.98345 11.8266C8.98345 10.2703 9.88345 9.10781 11.0084 9.10781C11.9647 9.10781 12.4241 9.825 12.4241 10.6828C12.4241 11.6437 11.81 13.0781 11.4959 14.4094C11.2334 15.525 12.0538 16.4297 13.1553 16.4297C15.1428 16.4297 16.4834 13.875 16.4834 10.8469C16.4834 8.54531 14.9319 6.825 12.1147 6.825C8.93189 6.825 6.94438 9.20156 6.94438 11.8547C6.94438 12.7687 7.21626 13.4156 7.63813 13.9125C7.83032 14.1422 7.85845 14.2359 7.78813 14.4984C7.73657 14.6906 7.62407 15.1547 7.57251 15.3422C7.5022 15.6094 7.28657 15.7031 7.04751 15.6047C5.58032 15.0047 4.89595 13.4016 4.89595 11.5922C4.89595 8.61094 7.41313 5.03438 12.4006 5.03438C16.4084 5.03438 19.0475 7.93594 19.0475 11.0484C19.0475 15.1687 16.7553 18.2438 13.3803 18.2438C12.2459 18.2438 11.1819 17.6297 10.8163 16.9359C10.8163 16.9359 10.2069 19.3547 10.0756 19.8234C9.85532 20.6344 9.41938 21.4406 9.02095 22.0734C9.98746 22.3586 10.9898 22.5038 11.9975 22.5047C17.7959 22.5047 22.4975 17.8031 22.4975 12.0047C22.4975 6.20625 17.8006 1.5 12.0022 1.5Z" fill="currentColor"/>
</svg>
