<svg width="24" height="24" viewBox="0 0 24 24" fill="none" xmlns="http://www.w3.org/2000/svg">
<path d="M21.9102 14.3878C21.5811 16.0807 18.9628 17.9336 15.9557 18.2926C14.3876 18.4797 12.8437 18.6517 11.1974 18.5762C8.50502 18.4528 6.38054 17.9336 6.38054 17.9336C6.38054 18.1957 6.3967 18.4452 6.42902 18.6786C6.77905 21.3357 9.06374 21.4949 11.2279 21.5691C13.4123 21.6438 15.3573 21.0305 15.3573 21.0305L15.447 23.0053C15.447 23.0053 13.9191 23.8257 11.1974 23.9766C9.69656 24.0591 7.83302 23.9389 5.66251 23.3644C0.95503 22.1184 0.145452 17.1004 0.0215779 12.0089C-0.0161792 10.4972 0.00709574 9.07177 0.00709574 7.87958C0.00709574 2.67325 3.41829 1.14719 3.41829 1.14719C5.1383 0.357269 8.08969 0.0250852 11.158 0H11.2333C14.3016 0.0250852 17.2549 0.357269 18.9748 1.14719C18.9748 1.14719 22.3859 2.67325 22.3859 7.87958C22.3859 7.87958 22.4287 11.7208 21.9102 14.3878Z" fill="currentColor"/>
<path d="M18.3623 8.28334V14.5873H15.8648V8.46863C15.8648 7.17882 15.3221 6.52415 14.2366 6.52415C13.0364 6.52415 12.4349 7.30075 12.4349 8.83638V12.1855H9.95207V8.83638C9.95207 7.30075 9.35042 6.52415 8.15021 6.52415C7.06469 6.52415 6.522 7.17882 6.522 8.46863V14.5873H4.02448V8.28334C4.02448 6.99495 4.35252 5.97111 5.01146 5.21364C5.69096 4.45617 6.58083 4.06787 7.68549 4.06787C8.96353 4.06787 9.93138 4.5591 10.5713 5.54169L11.1934 6.58453L11.8156 5.54169C12.4554 4.5591 13.4233 4.06787 14.7014 4.06787C15.806 4.06787 16.6958 4.45617 17.3755 5.21364C18.0343 5.97111 18.3623 6.99495 18.3623 8.28334Z" class="path-content" />
</svg>
