<svg width="24" height="24" viewBox="0 0 24 24" fill="none" xmlns="http://www.w3.org/2000/svg">
<path d="M20.0593 5H3.94067C2.87566 5 2 5.86341 2 6.94067V16.3963C2 17.4622 2.86694 18.337 3.94067 18.337H20.0593C21.1337 18.337 22 17.4614 22 16.3963V6.94067C22 5.86242 21.1235 5 20.0593 5ZM19.6813 6.05848L12 11.0377L4.31888 6.05848H19.6813ZM3.05855 6.94067C3.05855 6.80679 3.08884 6.6769 3.14529 6.55932L7.95023 9.67405L3.05855 16.2161V6.94067ZM20.0593 17.2785H3.94067C3.83095 17.2785 3.72623 17.2574 3.62916 17.2206L8.84047 10.2511L11.7121 12.1126C11.8874 12.2262 12.1128 12.2261 12.288 12.1126L15.1596 10.2511L20.3709 17.2206C20.2738 17.2574 20.1691 17.2785 20.0593 17.2785ZM20.9415 16.2161L16.0498 9.67405L20.8547 6.55932C20.9112 6.6769 20.9415 6.80679 20.9415 6.94067V16.2161Z" fill="currentColor"/>
</svg>
