<svg width="291" height="40" viewBox="0 0 291 40" preserveAspectRatio="xMinYMid meet" fill="none" xmlns="http://www.w3.org/2000/svg">
<path d="M0.28 31V3.08H18.24V7.76H5.56V14.52H16.6V19.2H5.56V31H0.28ZM23.3659 31V3.08H41.7659V7.76H28.6459V14.52H40.2459V19.2H28.6459V26.32H41.7659V31H23.3659ZM47.3503 3.08H57.5103C59.3236 3.08 60.9636 3.37333 62.4303 3.96C63.9236 4.54666 65.1903 5.42667 66.2303 6.6C67.297 7.74667 68.1103 9.2 68.6703 10.96C69.257 12.6933 69.5503 14.72 69.5503 17.04C69.5503 19.36 69.257 21.4 68.6703 23.16C68.1103 24.8933 67.297 26.3467 66.2303 27.52C65.1903 28.6667 63.9236 29.5333 62.4303 30.12C60.9636 30.7067 59.3236 31 57.5103 31H47.3503V3.08ZM57.5103 26.32C59.4836 26.32 61.0436 25.7467 62.1903 24.6C63.3636 23.4267 63.9503 21.64 63.9503 19.24V14.84C63.9503 12.44 63.3636 10.6667 62.1903 9.52C61.0436 8.34667 59.4836 7.76 57.5103 7.76H52.6303V26.32H57.5103ZM89.3684 31.48C87.7684 31.48 86.4618 31.12 85.4484 30.4C84.4351 29.68 83.7284 28.84 83.3284 27.88H83.1284L80.6084 31H78.2484V4.72L75.6884 4.2V2.2L83.4884 0.599998V13.2H83.6884C84.0884 12.2667 84.7551 11.44 85.6884 10.72C86.6218 10 87.8484 9.64 89.3684 9.64C90.6484 9.64 91.7951 9.89333 92.8084 10.4C93.8484 10.9067 94.7284 11.64 95.4484 12.6C96.1951 13.5333 96.7551 14.68 97.1284 16.04C97.5284 17.3733 97.7284 18.88 97.7284 20.56C97.7284 22.24 97.5284 23.76 97.1284 25.12C96.7551 26.4533 96.1951 27.6 95.4484 28.56C94.7284 29.4933 93.8484 30.2133 92.8084 30.72C91.7951 31.2267 90.6484 31.48 89.3684 31.48ZM87.6484 28.2C88.9818 28.2 90.0618 27.7467 90.8884 26.84C91.7151 25.9333 92.1284 24.6533 92.1284 23V18.12C92.1284 16.4667 91.7151 15.1867 90.8884 14.28C90.0618 13.3733 88.9818 12.92 87.6484 12.92C86.5284 12.92 85.5551 13.2667 84.7284 13.96C83.9018 14.6267 83.4884 15.5467 83.4884 16.72V24.4C83.4884 25.5733 83.9018 26.5067 84.7284 27.2C85.5551 27.8667 86.5284 28.2 87.6484 28.2ZM104.417 39.48C102.897 39.48 101.737 39.1067 100.937 38.36C100.137 37.64 99.7369 36.76 99.7369 35.72C99.7369 34.84 99.9769 34.1467 100.457 33.64C100.964 33.16 101.657 32.92 102.537 32.92C103.364 32.92 104.004 33.1733 104.457 33.68C104.937 34.1867 105.177 34.8133 105.177 35.56C105.177 35.9333 105.097 36.2667 104.937 36.56C104.804 36.88 104.657 37.1067 104.497 37.24L104.537 37.48C104.67 37.5067 104.884 37.52 105.177 37.52C106.564 37.52 107.804 36.1333 108.897 33.36L109.457 31.96L101.737 12.52H99.7769V10.12H109.737V12.52H107.297L111.897 25.56H112.097L116.697 12.52H114.257V10.12H121.617V12.52H119.697L111.297 33.52C111.004 34.24 110.657 34.96 110.257 35.68C109.884 36.4 109.417 37.04 108.857 37.6C108.324 38.16 107.684 38.6133 106.937 38.96C106.217 39.3067 105.377 39.48 104.417 39.48ZM137.001 31.48C134.601 31.48 132.561 31.0533 130.881 30.2C129.227 29.3467 127.801 28.2267 126.601 26.84L130.161 23.4C131.121 24.52 132.187 25.3733 133.361 25.96C134.561 26.5467 135.881 26.84 137.321 26.84C138.947 26.84 140.174 26.4933 141.001 25.8C141.827 25.08 142.241 24.12 142.241 22.92C142.241 21.9867 141.974 21.2267 141.441 20.64C140.907 20.0533 139.907 19.6267 138.441 19.36L135.801 18.96C130.227 18.08 127.441 15.3733 127.441 10.84C127.441 9.58667 127.667 8.45333 128.121 7.44C128.601 6.42667 129.281 5.56 130.161 4.84C131.041 4.12 132.094 3.57333 133.321 3.2C134.574 2.8 135.987 2.6 137.561 2.6C139.667 2.6 141.507 2.94667 143.081 3.64C144.654 4.33333 146.001 5.36 147.121 6.72L143.521 10.12C142.827 9.26667 141.987 8.57333 141.001 8.04C140.014 7.50667 138.774 7.24 137.281 7.24C135.761 7.24 134.614 7.53333 133.841 8.12C133.094 8.68 132.721 9.48 132.721 10.52C132.721 11.5867 133.027 12.3733 133.641 12.88C134.254 13.3867 135.241 13.76 136.601 14L139.201 14.48C142.027 14.9867 144.107 15.8933 145.441 17.2C146.801 18.48 147.481 20.28 147.481 22.6C147.481 23.9333 147.241 25.1467 146.761 26.24C146.307 27.3067 145.627 28.24 144.721 29.04C143.841 29.8133 142.747 30.4133 141.441 30.84C140.161 31.2667 138.681 31.48 137.001 31.48ZM167.814 31C166.694 31 165.8 30.68 165.134 30.04C164.494 29.3733 164.094 28.4933 163.934 27.4H163.694C163.347 28.76 162.64 29.7867 161.574 30.48C160.507 31.1467 159.187 31.48 157.614 31.48C155.48 31.48 153.84 30.92 152.694 29.8C151.547 28.68 150.974 27.1867 150.974 25.32C150.974 23.16 151.747 21.56 153.294 20.52C154.84 19.4533 157.04 18.92 159.894 18.92H163.454V17.4C163.454 16.2267 163.147 15.32 162.534 14.68C161.92 14.04 160.934 13.72 159.574 13.72C158.374 13.72 157.4 13.9867 156.654 14.52C155.934 15.0267 155.32 15.64 154.814 16.36L151.774 13.64C152.547 12.44 153.574 11.48 154.854 10.76C156.134 10.0133 157.827 9.64 159.934 9.64C162.76 9.64 164.907 10.28 166.374 11.56C167.84 12.84 168.574 14.68 168.574 17.08V26.92H170.654V31H167.814ZM159.334 27.76C160.48 27.76 161.454 27.5067 162.254 27C163.054 26.4933 163.454 25.7467 163.454 24.76V22H160.174C157.507 22 156.174 22.8533 156.174 24.56V25.24C156.174 26.0933 156.44 26.7333 156.974 27.16C157.534 27.56 158.32 27.76 159.334 27.76ZM174.797 31V10.12H179.917V13.6H180.117C180.544 12.48 181.211 11.5467 182.117 10.8C183.051 10.0267 184.331 9.64 185.957 9.64C188.117 9.64 189.771 10.3467 190.917 11.76C192.064 13.1733 192.637 15.1867 192.637 17.8V31H187.517V18.32C187.517 16.8267 187.251 15.7067 186.717 14.96C186.184 14.2133 185.304 13.84 184.077 13.84C183.544 13.84 183.024 13.92 182.517 14.08C182.037 14.2133 181.597 14.4267 181.197 14.72C180.824 14.9867 180.517 15.3333 180.277 15.76C180.037 16.16 179.917 16.64 179.917 17.2V31H174.797ZM211.273 27.52H211.073C210.7 28.72 209.993 29.68 208.953 30.4C207.913 31.12 206.7 31.48 205.313 31.48C202.673 31.48 200.646 30.5333 199.233 28.64C197.846 26.7467 197.153 24.04 197.153 20.52C197.153 17.0267 197.846 14.3467 199.233 12.48C200.646 10.5867 202.673 9.64 205.313 9.64C206.7 9.64 207.913 10 208.953 10.72C209.993 11.4133 210.7 12.36 211.073 13.56H211.273V1.4H216.393V31H211.273V27.52ZM206.953 27.24C208.18 27.24 209.206 26.9467 210.033 26.36C210.86 25.7733 211.273 24.9333 211.273 23.84V17.2C211.273 16.1867 210.86 15.3733 210.033 14.76C209.206 14.1467 208.18 13.84 206.953 13.84C205.62 13.84 204.54 14.2933 203.713 15.2C202.913 16.08 202.513 17.2667 202.513 18.76V22.36C202.513 23.8533 202.913 25.04 203.713 25.92C204.54 26.8 205.62 27.24 206.953 27.24ZM222.297 31V10.12H227.417V14.44H227.617C227.751 13.88 227.951 13.3467 228.217 12.84C228.511 12.3067 228.884 11.84 229.337 11.44C229.791 11.04 230.324 10.72 230.937 10.48C231.577 10.24 232.311 10.12 233.137 10.12H234.257V14.96H232.657C230.924 14.96 229.617 15.2133 228.737 15.72C227.857 16.2267 227.417 17.0533 227.417 18.2V31H222.297ZM240.561 7.08C239.494 7.08 238.721 6.84 238.241 6.36C237.787 5.88 237.561 5.26667 237.561 4.52V3.72C237.561 2.97333 237.787 2.36 238.241 1.88C238.721 1.4 239.494 1.16 240.561 1.16C241.601 1.16 242.361 1.4 242.841 1.88C243.321 2.36 243.561 2.97333 243.561 3.72V4.52C243.561 5.26667 243.321 5.88 242.841 6.36C242.361 6.84 241.601 7.08 240.561 7.08ZM238.001 10.12H243.121V31H238.001V10.12ZM249.055 31V10.12H254.175V13.6H254.375C254.802 12.48 255.469 11.5467 256.375 10.8C257.309 10.0267 258.589 9.64 260.215 9.64C262.375 9.64 264.029 10.3467 265.175 11.76C266.322 13.1733 266.895 15.1867 266.895 17.8V31H261.775V18.32C261.775 16.8267 261.509 15.7067 260.975 14.96C260.442 14.2133 259.562 13.84 258.335 13.84C257.802 13.84 257.282 13.92 256.775 14.08C256.295 14.2133 255.855 14.4267 255.455 14.72C255.082 14.9867 254.775 15.3333 254.535 15.76C254.295 16.16 254.175 16.64 254.175 17.2V31H249.055ZM281.011 31.48C279.464 31.48 278.078 31.2267 276.851 30.72C275.651 30.1867 274.624 29.4533 273.771 28.52C272.944 27.56 272.304 26.4133 271.851 25.08C271.398 23.72 271.171 22.2 271.171 20.52C271.171 18.8667 271.384 17.3733 271.811 16.04C272.264 14.7067 272.904 13.5733 273.731 12.64C274.558 11.68 275.571 10.9467 276.771 10.44C277.971 9.90667 279.331 9.64 280.851 9.64C282.478 9.64 283.891 9.92 285.091 10.48C286.291 11.04 287.278 11.8 288.051 12.76C288.824 13.72 289.398 14.84 289.771 16.12C290.171 17.3733 290.371 18.72 290.371 20.16V21.84H276.491V22.36C276.491 23.88 276.918 25.1067 277.771 26.04C278.624 26.9467 279.891 27.4 281.571 27.4C282.851 27.4 283.891 27.1333 284.691 26.6C285.518 26.0667 286.251 25.3867 286.891 24.56L289.651 27.64C288.798 28.84 287.624 29.7867 286.131 30.48C284.664 31.1467 282.958 31.48 281.011 31.48ZM280.931 13.48C279.571 13.48 278.491 13.9333 277.691 14.84C276.891 15.7467 276.491 16.92 276.491 18.36V18.68H285.051V18.32C285.051 16.88 284.691 15.72 283.971 14.84C283.278 13.9333 282.264 13.48 280.931 13.48Z" fill="currentColor"/>
</svg>
